<svg xmlns="http://www.w3.org/2000/svg" viewBox="0 0 24 24" width="24" height="24"><path d="M22 3.25C22 2.56 21.44 2 20.75 2H3.25C2.56 2 2 2.56 2 3.25v13.333c0 .69.56 1.25 1.25 1.25h17.5c.69 0 1.25-.56 1.25-1.25V3.25zm-18.333.833c0-.23.187-.417.417-.417h15.833c.23 0 .417.187.417.417v4.435c0 .23-.187.417-.417.417h-2.358a.416.416 0 01-.392-.275l-1.063-2.938a1.261 1.261 0 00-2.404.046l-1.274 4.437a.208.208 0 01-.392.023l-1.329-3.172a1.268 1.268 0 00-2.275-.204L7.105 8.757a.418.418 0 01-.342.178h-2.68a.417.417 0 01-.417-.417V4.083zm16.666 10c0 .23-.187.417-.417.417H4.083a.417.417 0 01-.417-.417v-3.065c0-.23.187-.417.417-.417h3.333a.834.834 0 00.684-.358L9.214 8.64a.207.207 0 01.361.04l1.571 3.75a1.25 1.25 0 001.187.82h.06a1.229 1.229 0 001.152-.901l1.23-4.294a.208.208 0 01.396-.013l.618 1.708c.169.515.653.861 1.195.853h2.932c.23 0 .417.187.417.417v3.063zm-6.375 5.151a.416.416 0 00-.321-.151h-3.275a.416.416 0 00-.321.151l-1.75 2.11a.417.417 0 00.342.656h6.733a.417.417 0 00.342-.656l-1.75-2.11z" fill="#fff"/></svg>
